<?xml version="1.0" encoding="UTF-8"?>
<svg xmlns="http://www.w3.org/2000/svg" width="1600" height="1200" viewBox="0 0 1600 1200" role="img" aria-label="Liar's Bar">
  <defs>
    <linearGradient id="bg" x1="0%" y1="0%" x2="100%" y2="100%">
      <stop offset="0%" stop-color="#f4efe8"/>
      <stop offset="100%" stop-color="#6b513f"/>
    </linearGradient>
    <linearGradient id="panel" x1="0%" y1="0%" x2="100%" y2="100%">
      <stop offset="0%" stop-color="rgba(255,255,255,0.95)"/>
      <stop offset="100%" stop-color="rgba(255,255,255,0.72)"/>
    </linearGradient>
  </defs>
  <rect width="1600" height="1200" rx="56" fill="url(#bg)"/>
  <circle cx="1240" cy="485" r="322" fill="rgba(255,255,255,0.28)"/>
  <circle cx="1240" cy="485" r="252" fill="rgba(255,255,255,0.52)"/>
  <path d="M0 940c220-110 450-134 686-70 138 38 269 48 404 28 130-18 300-83 510-193v495H0z" fill="rgba(255,255,255,0.52)"/>
  <rect x="86" y="86" width="1428" height="1028" rx="40" fill="rgba(255,255,255,0.18)" stroke="rgba(255,255,255,0.38)" stroke-width="2"/>
  <text x="118" y="162" fill="#1f1712" font-family="Arial, sans-serif" font-size="34" font-weight="700" letter-spacing="8">MIND GAME</text>
  <text x="118" y="860" fill="#1f1712" font-family="Arial, sans-serif" font-size="116" font-weight="800">Liar's Bar</text>
  <text x="118" y="936" fill="#1f1712" opacity="0.74" font-family="Arial, sans-serif" font-size="48" font-weight="500">Bluff and challenge</text>
  <g>
    <rect x="118" y="990" width="220" height="78" rx="24" fill="rgba(255,255,255,0.8)"/>
    <text x="148" y="1044" fill="#1f1712" font-family="Arial, sans-serif" font-size="34" font-weight="700">LAN PARTY</text>
  </g>
  <g>
    <circle cx="1240" cy="485" r="180" fill="#1f1712" opacity="0.08"/>
    <text x="1240" y="525" text-anchor="middle" fill="#1f1712" font-family="Arial, sans-serif" font-size="164" font-weight="800">LB</text>
  </g>
  
        <g opacity="0.96">
          <rect x="1040" y="300" width="96" height="190" rx="28" fill="#fff7eb" stroke="#c8a45c" stroke-width="12"/>
          <rect x="1170" y="250" width="96" height="240" rx="28" fill="#fff7eb" stroke="#c8a45c" stroke-width="12"/>
          <rect x="1300" y="330" width="96" height="160" rx="28" fill="#fff7eb" stroke="#c8a45c" stroke-width="12"/>
          <path d="M1005 625c80-42 166-42 246 0M1170 625c82-42 168-42 250 0" stroke="#1f1712" stroke-width="18" stroke-linecap="round" fill="none"/>
        </g>
</svg>