<?xml version="1.0" encoding="UTF-8"?>
<svg xmlns="http://www.w3.org/2000/svg" width="1600" height="1200" viewBox="0 0 1600 1200" role="img" aria-label="Old Maid">
  <defs>
    <linearGradient id="bg" x1="0%" y1="0%" x2="100%" y2="100%">
      <stop offset="0%" stop-color="#f6edf1"/>
      <stop offset="100%" stop-color="#b57bb0"/>
    </linearGradient>
    <linearGradient id="panel" x1="0%" y1="0%" x2="100%" y2="100%">
      <stop offset="0%" stop-color="rgba(255,255,255,0.95)"/>
      <stop offset="100%" stop-color="rgba(255,255,255,0.72)"/>
    </linearGradient>
  </defs>
  <rect width="1600" height="1200" rx="56" fill="url(#bg)"/>
  <circle cx="1240" cy="485" r="322" fill="rgba(255,255,255,0.28)"/>
  <circle cx="1240" cy="485" r="252" fill="rgba(255,255,255,0.52)"/>
  <path d="M0 940c220-110 450-134 686-70 138 38 269 48 404 28 130-18 300-83 510-193v495H0z" fill="rgba(255,255,255,0.52)"/>
  <rect x="86" y="86" width="1428" height="1028" rx="40" fill="rgba(255,255,255,0.18)" stroke="rgba(255,255,255,0.38)" stroke-width="2"/>
  <text x="118" y="162" fill="#261724" font-family="Arial, sans-serif" font-size="34" font-weight="700" letter-spacing="8">CARDS</text>
  <text x="118" y="860" fill="#261724" font-family="Arial, sans-serif" font-size="116" font-weight="800">Old Maid</text>
  <text x="118" y="936" fill="#261724" opacity="0.74" font-family="Arial, sans-serif" font-size="48" font-weight="500">Avoid the odd card</text>
  <g>
    <rect x="118" y="990" width="220" height="78" rx="24" fill="rgba(255,255,255,0.8)"/>
    <text x="148" y="1044" fill="#261724" font-family="Arial, sans-serif" font-size="34" font-weight="700">LAN PARTY</text>
  </g>
  <g>
    <circle cx="1240" cy="485" r="180" fill="#261724" opacity="0.08"/>
    <text x="1240" y="525" text-anchor="middle" fill="#261724" font-family="Arial, sans-serif" font-size="164" font-weight="800">OM</text>
  </g>
  
        <g opacity="0.96">
          <circle cx="1125" cy="420" r="92" fill="none" stroke="#70406f" stroke-width="24"/>
          <circle cx="1260" cy="570" r="92" fill="none" stroke="#261724" stroke-width="24"/>
          <circle cx="1100" cy="760" r="92" fill="none" stroke="#fff8ef" stroke-width="24"/>
        </g>
</svg>