<?xml version="1.0" encoding="UTF-8"?>
<svg xmlns="http://www.w3.org/2000/svg" width="1600" height="1200" viewBox="0 0 1600 1200" role="img" aria-label="Truth or Dare">
  <defs>
    <linearGradient id="bg" x1="0%" y1="0%" x2="100%" y2="100%">
      <stop offset="0%" stop-color="#f6eef5"/>
      <stop offset="100%" stop-color="#d45b73"/>
    </linearGradient>
  </defs>
  <rect width="1600" height="1200" rx="56" fill="url(#bg)"/>
  <circle cx="1240" cy="485" r="322" fill="rgba(255,255,255,0.28)"/>
  <circle cx="1240" cy="485" r="252" fill="rgba(255,255,255,0.52)"/>
  <path d="M0 940c220-110 450-134 686-70 138 38 269 48 404 28 130-18 300-83 510-193v495H0z" fill="rgba(255,255,255,0.52)"/>
  <rect x="86" y="86" width="1428" height="1028" rx="40" fill="rgba(255,255,255,0.18)" stroke="rgba(255,255,255,0.38)" stroke-width="2"/>
  <text x="118" y="162" fill="#24181d" font-family="Arial, sans-serif" font-size="34" font-weight="700" letter-spacing="8">PARTY</text>
  <text x="118" y="860" fill="#24181d" font-family="Arial, sans-serif" font-size="116" font-weight="800">Truth or Dare</text>
  <text x="118" y="936" fill="#24181d" opacity="0.74" font-family="Arial, sans-serif" font-size="48" font-weight="500">Pick a card</text>
  <g>
    <rect x="118" y="990" width="220" height="78" rx="24" fill="rgba(255,255,255,0.8)"/>
    <text x="148" y="1044" fill="#24181d" font-family="Arial, sans-serif" font-size="34" font-weight="700">LAN PARTY</text>
  </g>
  <g>
    <circle cx="1240" cy="485" r="180" fill="#24181d" opacity="0.08"/>
    <text x="1240" y="525" text-anchor="middle" fill="#24181d" font-family="Arial, sans-serif" font-size="164" font-weight="800">TD</text>
  </g>
  <g opacity="0.96">
    <rect x="1038" y="310" width="210" height="300" rx="28" transform="rotate(-10 1143 460)" fill="#fff9ef" stroke="#8c5474" stroke-width="12"/>
    <rect x="1188" y="330" width="210" height="300" rx="28" transform="rotate(12 1293 480)" fill="#fff9ef" stroke="#24181d" stroke-width="12"/>
    <text x="1138" y="484" text-anchor="middle" fill="#8c5474" font-family="Arial, sans-serif" font-size="120" font-weight="800">?</text>
    <text x="1298" y="506" text-anchor="middle" fill="#24181d" font-family="Arial, sans-serif" font-size="120" font-weight="800">!</text>
  </g>
</svg>
