<?xml version="1.0" encoding="UTF-8"?>
<svg xmlns="http://www.w3.org/2000/svg" width="1600" height="1200" viewBox="0 0 1600 1200" role="img" aria-label="24 Points">
  <defs>
    <linearGradient id="bg" x1="0%" y1="0%" x2="100%" y2="100%">
      <stop offset="0%" stop-color="#f6f1e8"/>
      <stop offset="100%" stop-color="#4d8ec6"/>
    </linearGradient>
    <linearGradient id="panel" x1="0%" y1="0%" x2="100%" y2="100%">
      <stop offset="0%" stop-color="rgba(255,255,255,0.95)"/>
      <stop offset="100%" stop-color="rgba(255,255,255,0.72)"/>
    </linearGradient>
  </defs>
  <rect width="1600" height="1200" rx="56" fill="url(#bg)"/>
  <circle cx="1240" cy="485" r="322" fill="rgba(255,255,255,0.28)"/>
  <circle cx="1240" cy="485" r="252" fill="rgba(255,255,255,0.52)"/>
  <path d="M0 940c220-110 450-134 686-70 138 38 269 48 404 28 130-18 300-83 510-193v495H0z" fill="rgba(255,255,255,0.52)"/>
  <rect x="86" y="86" width="1428" height="1028" rx="40" fill="rgba(255,255,255,0.18)" stroke="rgba(255,255,255,0.38)" stroke-width="2"/>
  <text x="118" y="162" fill="#182432" font-family="Arial, sans-serif" font-size="34" font-weight="700" letter-spacing="8">BRAIN</text>
  <text x="118" y="860" fill="#182432" font-family="Arial, sans-serif" font-size="116" font-weight="800">24 Points</text>
  <text x="118" y="936" fill="#182432" opacity="0.74" font-family="Arial, sans-serif" font-size="48" font-weight="500">Math race</text>
  <g>
    <rect x="118" y="990" width="220" height="78" rx="24" fill="rgba(255,255,255,0.8)"/>
    <text x="148" y="1044" fill="#182432" font-family="Arial, sans-serif" font-size="34" font-weight="700">LAN PARTY</text>
  </g>
  <g>
    <circle cx="1240" cy="485" r="180" fill="#182432" opacity="0.08"/>
    <text x="1240" y="525" text-anchor="middle" fill="#182432" font-family="Arial, sans-serif" font-size="164" font-weight="800">24</text>
  </g>
  
        <g opacity="0.96">
          <text x="1000" y="520" font-size="188" font-weight="800" fill="#f2c84b" font-family="Arial, sans-serif">3 + 5</text>
          <text x="1070" y="735" font-size="232" font-weight="800" fill="#182432" font-family="Arial, sans-serif">24</text>
          <circle cx="1300" cy="360" r="48" fill="#fff8ee" stroke="#f2c84b" stroke-width="14"/>
        </g>
</svg>